<svg version="1.1"
     width="500" height="500"
     xmlns="http://www.w3.org/2000/svg">

  <ellipse cx="250" cy="400" rx="150" ry="80" fill="#e1c524" />
  <ellipse cx="250" cy="280" rx="230" ry="80" fill="#703a26" />
  <ellipse cx="250" cy="250" rx="200" ry="180" fill="#703a26" />
  <circle cx="300" cy="180" r="30" fill="#ffffff" />
  <circle cx="200" cy="180" r="30" fill="#ffffff" />
  <circle cx="290" cy="180" r="15" fill="#000000" />
  <circle cx="210" cy="180" r="15" fill="#000000" />
  <circle cx="250" cy="230" r="15" fill="#d43737" />
  <circle cx="100" cy="230" r="20" fill="#d43737" />
  <circle cx="400" cy="230" r="20" fill="#d43737" />
  <path d = "M 100 180 C 100 180, 180 80, 230 130" stroke="black" stroke-width="4" fill="none"/>
  <path d = "M 400 180 C 400 180, 320 80, 270 130" stroke="black" stroke-width="4" fill="none"/>
  <path d = "M 70 290 C 70 290, 250 330, 430 290" stroke="black" stroke-width="4" fill="none"/>
  <text x="190" y="450" fill="black" font-size="20">curry bread man</text>


</svg>